# xmcd
#
# Track frame offsets:
#	183
#	19950
#	41095
#	67440
#	90900
#	117708
#	131358
#	148053
#	182083
#	200878
#
# Disc length: 2890 seconds
#
# Revision: 1
# Processed by: cddbd v1.5.2PL0 Copyright (c) Steve Scherf et al.
# Submitted via: audiograbber 1.83.01
#
DISCID=9e0b480a
DTITLE=Status Quo - Piledriver +
DYEAR=1972
DGENRE=Rock
TTITLE0=Don't Waste My Time
TTITLE1=O Baby
TTITLE2=A Year
TTITLE3=Unspoken Words
TTITLE4=Big Fat Mama
TTITLE5=Paper Plane
TTITLE6=All The Reasons
TTITLE7=Roadhouse Blues
TTITLE8=Bonus Track: Joanne [B-side of 'Caroline']
TTITLE9=Bonus Track: Lonely Night [B-side of 'Break The Rules']
EXTD=
EXTT0=
EXTT1=
EXTT2=
EXTT3=
EXTT4=
EXTT5=
EXTT6=
EXTT7=
EXTT8=
EXTT9=
PLAYORDER=
